<svg viewBox="0 0 24 24" fill="currentColor" xmlns="http://www.w3.org/2000/svg"><path fill-rule="evenodd" clip-rule="evenodd" d="M10.005 4.907c-3.707 1.027-6.12 3.173-6.72 6.907-.163 1.016.065.249.755-.267 2.254-1.683 6.686-1.087 7.3 2.757 1.238 6.807-7.29 7.985-9.814 4.226A6.912 6.912 0 01.41 15.516c-.608-4.871 1.894-9.21 6.288-11.248.813-.377 1.67-.672 2.592-.889.462-.093.797.158.952.582.131.362.176.761-.237.946zm12.217 0c-3.707 1.027-6.12 3.173-6.72 6.907-.163 1.016.066.249.756-.267 2.254-1.683 6.685-1.087 7.3 2.757 1.238 6.807-7.29 7.985-9.814 4.226a6.913 6.913 0 01-1.116-3.014c-.608-4.871 1.893-9.21 6.288-11.248.813-.377 1.67-.672 2.592-.889.462-.093.797.158.952.582.13.362.175.761-.238.946z" fill="#03314B"></path></svg>
