<svg viewBox="0 0 24 24" fill="none" xmlns="http://www.w3.org/2000/svg" style="color: #0266f2"><g clip-path="url(#clip0_4009_300)"><path d="M12.94 17.6C12.8229 16.8445 12.8229 16.0755 12.94 15.32C14.0195 15.2679 15.0718 14.964 16.0129 14.4327C16.954 13.9014 17.7577 13.1573 18.36 12.26C19.0788 11.1036 19.5502 9.8109 19.7447 8.4633C19.9392 7.1157 19.8525 5.74243 19.49 4.43C19.1691 3.0472 18.6681 1.71248 18 0.46L17.79 0L17.27 0.08C14.6624 0.58181 12.3071 1.96604 10.6 4C8.80676 3.27344 6.86866 2.97553 4.94 3.13L4.38 3.19L4.28 3.75C4.28 3.96 3.36 8.93 4.96 11.55C5.65075 12.7409 6.74788 13.6428 8.05 14.09C8.54973 14.2578 9.07286 14.3456 9.6 14.35C9.93777 14.344 10.2736 14.297 10.6 14.21C10.852 14.4915 11.1262 14.7524 11.42 14.99C11.2987 15.8591 11.2987 16.7409 11.42 17.61C9.25037 17.6867 7.11904 18.2041 5.15575 19.1307C3.19246 20.0573 1.43828 21.3738 0 23L1.13 24C2.48624 22.4516 4.15764 21.2108 6.0323 20.3607C7.90695 19.5106 9.9416 19.0708 12 19.0708C14.0584 19.0708 16.093 19.5106 17.9677 20.3607C19.8424 21.2108 21.5138 22.4516 22.87 24L24 23C22.6042 21.4144 20.9083 20.1208 19.01 19.194C17.1117 18.2672 15.0487 17.7254 12.94 17.6ZM6.24 10.75C5.24 9.2 5.45 6.17 5.66 4.58C7.07156 4.52803 8.47923 4.75924 9.8 5.26C9.13505 6.57042 8.79223 8.02054 8.8 9.49C8.78748 10.6559 9.07319 11.8056 9.63 12.83C8.93262 12.8091 8.25284 12.6061 7.65816 12.2412C7.06348 11.8763 6.57458 11.3622 6.24 10.75ZM10.32 9.49C10.32 3.76 15.32 2.07 16.96 1.67C17.66 3.19 19.47 7.93 17.09 11.41C16.6571 12.0777 16.0787 12.6386 15.398 13.0508C14.7174 13.463 13.9522 13.7157 13.16 13.79C13.7114 11.4437 14.5231 9.16621 15.58 7L14.22 6.37C13.1642 8.56269 12.3365 10.8581 11.75 13.22C10.8184 12.2025 10.3074 10.8695 10.32 9.49Z" fill="currentColor"></path></g><defs><clipPath id="clip0_4009_300"><rect width="24" height="24" fill="currentColor"></rect></clipPath></defs></svg>
