<svg xmlns="http://www.w3.org/2000/svg" viewBox="0 0 24 24" fill="none" fill-rule="evenodd"><path fill="currentColor" d="M14.381 2.516a.25.25 0 0 1 .139.224v20a.25.25 0 0 1-.402.198L6.692 17.24H3.488c-1.208 0-2.179-.986-2.179-2.19v-4.622c0-1.204.971-2.19 2.179-2.19h3.204l7.426-5.698a.25.25 0 0 1 .263-.026zm-1.269 2.572L7.237 9.596a.25.25 0 0 1-.152.052H3.488c-.421 0-.771.346-.771.782v4.622c0 .436.35.782.771.782h3.597a.25.25 0 0 1 .152.052l5.875 4.508V5.088zm5.703.605a.25.25 0 0 1 .352-.034c1.944 1.605 3.524 4.291 3.524 7.08s-1.586 5.477-3.524 7.08a.25.25 0 0 1-.352-.033l-.579-.7a.25.25 0 0 1 .033-.352c1.684-1.393 3.014-3.712 3.014-5.995s-1.324-4.601-3.013-5.994a.25.25 0 0 1-.034-.352l.578-.7zm-2.21 2.719a.25.25 0 0 1 .349-.055c1.335.971 2.469 2.448 2.469 4.383s-1.133 3.412-2.469 4.383a.25.25 0 0 1-.349-.055l-.534-.735a.25.25 0 0 1 .055-.349c1.117-.811 1.889-1.914 1.889-3.244s-.773-2.432-1.889-3.244a.25.25 0 0 1-.055-.349l.534-.734z"></path></svg>
